<svg version="1.1" id="Layer_1" xmlns="http://www.w3.org/2000/svg" xmlns:xlink="http://www.w3.org/1999/xlink" x="0px" y="0px"
	 viewBox="0 0 72 72" style="enable-background:new 0 0 72 72;" xml:space="preserve">
<style type="text/css">
	.st0{fill:none;stroke:#ED1C24;stroke-width:2;stroke-miterlimit:10;}
</style>
<circle id="XMLID_1_" class="st0" cx="36" cy="36" r="32.3"/>
<circle id="XMLID_59_" class="st0" cx="128" cy="35" r="32.3"/>
<path id="XMLID_2_" class="st0" d="M30.4,17.5c-2.7-1.6-6.2-1.1-8.1,1.5c-0.8,1.1-1.3,2.5-1.3,4v26c0,0.9,0.2,1.7,0.4,2.4
	c1.3,3.6,5.8,4.9,9.1,3l23.5-14.2c3.1-1.9,3.1-6.4,0-8.3L30.4,17.5z"/>
<g id="XMLID_42_">
	<path id="XMLID_44_" class="st0" d="M117.7,55.5L117.7,55.5c-3.4,0-6.1-2.7-6.1-6.1V20.7c0-3.4,2.7-6.1,6.1-6.1h0
		c3.4,0,6.1,2.7,6.1,6.1v28.7C123.8,52.7,121.1,55.5,117.7,55.5z"/>
	<path id="XMLID_43_" class="st0" d="M138.3,55.5L138.3,55.5c-3.4,0-6.1-2.7-6.1-6.1V20.7c0-3.4,2.7-6.1,6.1-6.1h0
		c3.4,0,6.1,2.7,6.1,6.1v28.7C144.4,52.7,141.7,55.5,138.3,55.5z"/>
</g>
<g id="XMLID_99_">
	<circle id="XMLID_61_" class="st0" cx="36" cy="128" r="32.3"/>
	<path id="XMLID_102_" class="st0" d="M58.8,123.8l-16.2-9.8c-3-1.8-7.1,0-7.5,3.5c0,0.2,0,0.4,0,0.5v2.8l-11.2-6.8
		c-3-1.8-7.1,0-7.5,3.5c0,0.2,0,0.4,0,0.5v20.1c0,2.1,1.2,3.9,2.9,4.8c1.2,0.6,2.6,0.5,3.8-0.2l12.1-7.3v2.8c0,2.1,1.2,3.9,2.9,4.8
		c1.2,0.6,2.6,0.5,3.8-0.2l17.1-10.4C62,130.4,62,125.7,58.8,123.8z"/>
</g>
<g id="XMLID_101_">
	<circle id="XMLID_104_" class="st0" cx="128" cy="128" r="32.3"/>
	<path id="XMLID_103_" class="st0" d="M105.2,132.2l16.2,9.8c3,1.8,7.1,0,7.5-3.5c0-0.2,0-0.4,0-0.5v-2.8l11.2,6.8
		c3,1.8,7.1,0,7.5-3.5c0-0.2,0-0.4,0-0.5v-20.1c0-2.1-1.2-3.9-2.9-4.8c-1.2-0.6-2.6-0.5-3.8,0.2l-12.1,7.3v-2.8
		c0-2.1-1.2-3.9-2.9-4.8c-1.2-0.6-2.6-0.5-3.8,0.2l-17.1,10.4C102,125.6,102,130.3,105.2,132.2z"/>
</g>
</svg>
